<svg viewBox="0 0 24 24" fill="none" xmlns="http://www.w3.org/2000/svg">
<g fill="#FF9900">
<path d="M6.82 12.9c-.18 0-.36-.06-.49-.19-.13-.13-.19-.31-.19-.49v-5c0-.37.15-.72.42-.97L10.3 2.41c.27-.25.64-.39 1.02-.39h.36c.38 0 .75.14 1.02.39l3.74 3.84c.27.25.42.6.42.97v5c0 .18-.06.36-.19.49-.13.13-.31.19-.49.19H6.82z"/>
<path d="M17.18 11.1c.18 0 .36.06.49.19.13.13.19.31.19.49v5c0 .37-.15.72-.42.97L13.7 21.59c-.27.25-.64.39-1.02.39h-.36c-.38 0-.75-.14-1.02-.39L7.56 17.75c-.27-.25-.42-.6-.42-.97v-5c0-.18.06-.36.19-.49.13-.13.31-.19.49-.19h9.36z"/>
</g>
</svg>
