<svg width="32" height="32" viewBox="0 0 32 32" fill="none" xmlns="http://www.w3.org/2000/svg">
<path d="M27.08 4.24C25.04 3.31 22.87 2.66 20.61 2.35C20.35 2.78 20.05 3.35 19.84 3.8C17.44 3.52 15.07 3.52 12.72 3.8C12.51 3.35 12.2 2.78 11.94 2.35C9.67 2.66 7.5 3.31 5.46 4.24C0.79 10.94 -0.48 17.49 0.15 23.93C2.89 25.96 5.54 27.15 8.14 27.96C8.72 27.14 9.24 26.27 9.69 25.36C8.85 25.05 8.05 24.68 7.29 24.26C7.49 24.12 7.69 23.97 7.88 23.82C13.27 26.31 19.27 26.31 24.59 23.82C24.78 23.97 24.98 24.12 25.18 24.26C24.42 24.68 23.62 25.05 22.78 25.36C23.23 26.27 23.75 27.14 24.33 27.96C26.93 27.15 29.58 25.96 32.32 23.93C33.06 16.59 31.26 10.1 27.08 4.24ZM10.71 19.95C9.12 19.95 7.82 18.49 7.82 16.72C7.82 14.95 9.09 13.49 10.71 13.49C12.33 13.49 13.63 14.95 13.6 16.72C13.6 18.49 12.33 19.95 10.71 19.95ZM21.76 19.95C20.17 19.95 18.87 18.49 18.87 16.72C18.87 14.95 20.14 13.49 21.76 13.49C23.38 13.49 24.68 14.95 24.65 16.72C24.65 18.49 23.38 19.95 21.76 19.95Z" fill="#5865F2"/>
</svg>