<svg width="32" height="32" viewBox="0 0 32 32" fill="none" xmlns="http://www.w3.org/2000/svg">
<path d="M15.1 11.3h2.8v2.6h-2.8v-2.6zm-3.2 0h2.8v2.6h-2.8v-2.6zm-3.2 0h2.8v2.6H8.7v-2.6zm6.4-2.9h2.8v2.6h-2.8V8.4zm-3.2 0h2.8v2.6h-2.8V8.4zm-3.2 0h2.8v2.6H8.7V8.4zm6.4-2.9h2.8v2.6h-2.8V5.5zm-3.2 0h2.8v2.6h-2.8V5.5zm9.6 8.4c-.6-.4-2-.5-3.1-.2-.1-.8-.6-1.5-1.4-2.1l-.5-.3-.3.5c-.6 1-.8 2.7-.1 3.8.3.5.7.9 1.2 1.1-.5.3-1.3.4-2 .4H2.9c-.2 1.5.1 3.5 1 5 .8 1.3 2.1 2 4 2 7.6 0 13.2-3.5 15.8-11 1 0 3.2 0 4.3-2.1.1-.1.3-.5.4-.8l-.2-.1c-1.1-.7-2.6-.6-4.1-.2z" fill="#2496ED"/>
</svg>