<svg width="32" height="32" viewBox="0 0 32 32" fill="none" xmlns="http://www.w3.org/2000/svg">
<path d="M16 29.8l5.38-16.54H10.62L16 29.8z" fill="#FCA326"/>
<path d="M16 29.8l-5.38-16.54H2.92L16 29.8z" fill="#FC6D26"/>
<path d="M2.92 13.26L1.18 18.4c-.16.49-.01 1.04.36 1.36L16 29.8l-13.08-16.54z" fill="#E24329"/>
<path d="M2.92 13.26h7.7l-2.48-7.62c-.13-.38-.68-.38-.8 0l-4.42 7.62z" fill="#FC6D26"/>
<path d="M16 29.8l5.38-16.54h7.7L16 29.8z" fill="#FC6D26"/>
<path d="M29.08 13.26l1.74 5.14c.16.49.01 1.04-.36 1.36L16 29.8l13.08-16.54z" fill="#E24329"/>
<path d="M29.08 13.26h-7.7l2.48-7.62c.13-.38.68-.38.8 0l4.42 7.62z" fill="#FC6D26"/>
</svg>