<svg viewBox="0 0 24 24" fill="none" xmlns="http://www.w3.org/2000/svg">
<path d="M7.5 4.5C5.8 4.5 4.5 5.8 4.5 7.5c0 .6.2 1.1.5 1.6C4.4 9.4 4 10.1 4 11c0 1.4 1.1 2.5 2.5 2.5h11c1.9 0 3.5-1.6 3.5-3.5S19.4 6.5 17.5 6.5c-.2 0-.4 0-.6.1C16.2 5.1 14.7 4 13 4c-1.2 0-2.3.5-3.1 1.3C9.5 4.8 8.6 4.5 7.5 4.5z" fill="#4285F4"/>
<path d="M7.5 17.5C5.8 17.5 4.5 16.2 4.5 14.5c0-.6.2-1.1.5-1.6C4.4 12.6 4 11.9 4 11c0-1.4 1.1-2.5 2.5-2.5h11c1.9 0 3.5 1.6 3.5 3.5S19.4 15.5 17.5 15.5c-.2 0-.4 0-.6-.1C16.2 16.9 14.7 18 13 18c-1.2 0-2.3-.5-3.1-1.3C9.5 17.2 8.6 17.5 7.5 17.5z" fill="#34A853"/>
</svg>
