<svg viewBox="0 0 24 24" fill="none" xmlns="http://www.w3.org/2000/svg">
<path d="M7.5 5.5C5.8 5.5 4.5 6.8 4.5 8.5c0 .6.2 1.1.5 1.6C4.4 10.4 4 11.1 4 12c0 1.4 1.1 2.5 2.5 2.5h11c1.9 0 3.5-1.6 3.5-3.5S19.4 7.5 17.5 7.5c-.2 0-.4 0-.6.1C16.2 6.1 14.7 5 13 5c-1.2 0-2.3.5-3.1 1.3C9.5 5.8 8.6 5.5 7.5 5.5z" fill="#00A1E0"/>
<path d="M17.5 16c1.9 0 3.5-1.6 3.5-3.5S19.4 9 17.5 9c-.2 0-.4 0-.6.1C16.2 7.6 14.7 6.5 13 6.5c-1.2 0-2.3.5-3.1 1.3C9.5 7.3 8.6 7 7.5 7C5.8 7 4.5 8.3 4.5 10c0 .6.2 1.1.5 1.6C4.4 11.9 4 12.6 4 13.5c0 1.4 1.1 2.5 2.5 2.5h11z" fill="#1EAEFF"/>
</svg>