<svg width="32" height="32" viewBox="0 0 32 32" fill="none" xmlns="http://www.w3.org/2000/svg">
<path d="M6.813 20.48a3.386 3.386 0 0 1-3.386 3.386 3.386 3.386 0 0 1-3.386-3.386 3.386 3.386 0 0 1 3.386-3.386h3.386v3.386zm1.707 0a3.386 3.386 0 0 1 3.386-3.386 3.386 3.386 0 0 1 3.386 3.386v8.48a3.386 3.386 0 0 1-3.386 3.386 3.386 3.386 0 0 1-3.386-3.386v-8.48z" fill="#E01E5A"/>
<path d="M11.52 6.813a3.386 3.386 0 0 1-3.386-3.386A3.386 3.386 0 0 1 11.52 0a3.386 3.386 0 0 1 3.386 3.427v3.386H11.52zm0 1.707a3.386 3.386 0 0 1 3.386 3.386 3.386 3.386 0 0 1-3.386 3.386H3.04a3.386 3.386 0 0 1-3.386-3.386A3.386 3.386 0 0 1 3.04 8.52h8.48z" fill="#36C5F0"/>
<path d="M25.187 11.52a3.386 3.386 0 0 1 3.386-3.386 3.386 3.386 0 0 1 3.386 3.386 3.386 3.386 0 0 1-3.386 3.386h-3.386V11.52zm-1.707 0a3.386 3.386 0 0 1-3.386 3.386 3.386 3.386 0 0 1-3.386-3.386V3.04a3.386 3.386 0 0 1 3.386-3.386 3.386 3.386 0 0 1 3.386 3.386v8.48z" fill="#2EB67D"/>
<path d="M20.48 25.187a3.386 3.386 0 0 1 3.386 3.386 3.386 3.386 0 0 1-3.386 3.386 3.386 3.386 0 0 1-3.386-3.386v-3.386h3.386zm0-1.707a3.386 3.386 0 0 1-3.386-3.386 3.386 3.386 0 0 1 3.386-3.386h8.48a3.386 3.386 0 0 1 3.386 3.386 3.386 3.386 0 0 1-3.386 3.386h-8.48z" fill="#ECB22E"/>
</svg>